[[.........why be the same as everyone else when YOU can be UNiQUE.........]]            



Format                                   : AVI
Format/Info                              : Audio Video Interleave
File size                                : 1.38 GiB
Duration                                 : 1h 43mn
Overall bit rate                         : 1 910 Kbps
Writing application                      : VirtualDubMod 1.5.10.2 (build 2540/release)
Writing library                          : VirtualDubMod build 2540/release

Video
ID                                       : 0
Format                                   : MPEG-4 Visual
Format profile                           : Advanced Simple@L5
Format settings, BVOP                    : 2
Format settings, QPel                    : No
Format settings, GMC                     : No warppoints
Format settings, Matrix                  : Default (H.263)
Muxing mode                              : Packed bitstream
Codec ID                                 : XVID
Codec ID/Hint                            : XviD
Duration                                 : 1h 43mn
Bit rate                                 : 1 771 Kbps
Width                                    : 598 pixels
Height                                   : 268 pixels
Display aspect ratio                     : 2.25:1
Frame rate                               : 29.970 fps
Color space                              : YUV
Chroma subsampling                       : 4:2:0
Bit depth                                : 8 bits
Scan type                                : Progressive
Compression mode                         : Lossy
Bits/(Pixel*Frame)                       : 0.369
Stream size                              : 1.28 GiB (93%)
Writing library                          : XviD 64

Audio
ID                                       : 1
Format                                   : MPEG Audio
Format version                           : Version 1
Format profile                           : Layer 3
Codec ID                                 : 55
Codec ID/Hint                            : MP3
Duration                                 : 1h 43mn
Bit rate mode                            : Constant
Bit rate                                 : 128 Kbps
Channel(s)                               : 2 channels
Sampling rate                            : 48.0 KHz
Compression mode                         : Lossy
Stream size                              : 94.4 MiB (7%)
Alignment                                : Split accross interleaves
Interleave, duration                     : 33 ms (1.00 video frame)
Interleave, preload duration             : 500 ms




 
http://www.imdb.com/title/tt1922777/




Ratings: 7.2/10 from 9,729 users   Metascore: 53/100
Reviews: 139 user | 152 critic | 30 from Metacritic.com

Found footage helps a true-crime author realize how and why a family was murdered in his new home, though his discoveries put his entire family in the path of a supernatural entity.

Director:
Scott Derrickson
Writers:
Scott Derrickson (screenplay), C. Robert Cargill
Stars:
Ethan Hawke, Juliet Rylance and James Ransone | See full cast and crew




Source Used




HP...........Thanks



2 samples 1 light ,1 dark check them both out the movie is dark ................Cropped resized (more for watching on pc and small tv) levels filter ,gaussian blur removed,sat,contrast and slight sharpen


Real so so cam imho but you have been warned and its your choice and better audio is coming




Enjoy
 
http://lookpic.com/O/i2/675/S0rZmyQG.png 
http://lookpic.com/O/i2/1306/1NiH3i2v.png 
http://lookpic.com/O/i2/461/80znLxJk.png 
http://lookpic.com/O/i2/275/xDRry5za.png
